<svg viewBox="0 0 32 32" fill="none" xmlns="http://www.w3.org/2000/svg" class="h-4 w-4"><path d="M19.1747 3.05112C19.2296 2.79267 19.1978 2.52331 19.084 2.28484C18.9702 2.04636 18.7809 1.85211 18.5454 1.73221C18.31 1.61232 18.0415 1.57349 17.7818 1.62175C17.522 1.67001 17.2854 1.80266 17.1087 1.99912L3.5087 17.1991C3.35429 17.3718 3.25314 17.5854 3.21745 17.8142C3.18177 18.0431 3.21307 18.2774 3.30759 18.4888C3.40211 18.7003 3.5558 18.8799 3.75012 19.0059C3.94444 19.1319 4.17108 19.199 4.4027 19.1991H14.9187L12.8307 28.9471C12.7757 29.2056 12.8076 29.4749 12.9214 29.7134C13.0352 29.9519 13.2245 30.1461 13.46 30.266C13.6954 30.3859 13.9639 30.4248 14.2236 30.3765C14.4834 30.3282 14.72 30.1956 14.8967 29.9991L28.4967 14.7991C28.6511 14.6265 28.7523 14.4129 28.7879 14.184C28.8236 13.9552 28.7923 13.7209 28.6978 13.5094C28.6033 13.298 28.4496 13.1184 28.2553 12.9923C28.061 12.8663 27.8343 12.7992 27.6027 12.7991H17.0867L19.1747 3.05112Z" fill="#19C37D"></path></svg>